/* XPM */
static char *_a15986e5f494a5ff377c2d6083a64c4NSoVsDU0eSieZ7OI[] = {
/* columns rows colors chars-per-pixel */
"32 32 212 2 ",
"   c None",
".  c #040406",
"X  c #0C0B0A",
"o  c #080708",
"O  c #110F0B",
"+  c #13110D",
"@  c #1A160E",
"#  c #1C180E",
"$  c #151411",
"%  c #191712",
"&  c #1C1A12",
"*  c #1F1E18",
"=  c #211A0E",
"-  c #201C12",
";  c #201F19",
":  c #252115",
">  c #23221B",
",  c #2D2A1D",
"<  c #2D2515",
"1  c #372E1B",
"2  c #332814",
"3  c #3B321E",
"4  c #37311C",
"5  c #2F2D24",
"6  c #302E23",
"7  c #353325",
"8  c #393525",
"9  c #38372B",
"0  c #423216",
"q  c #4B3B1D",
"w  c #45391E",
"e  c #453D26",
"r  c #403E31",
"t  c #59441E",
"y  c #4A462B",
"u  c #544729",
"i  c #5B4C2B",
"p  c #594827",
"a  c #494534",
"s  c #494837",
"d  c #54513B",
"f  c #5C5536",
"g  c #684F21",
"h  c #64522C",
"j  c #6B552A",
"k  c #6E5729",
"l  c #745B2C",
"z  c #745724",
"x  c #645431",
"c  c #695933",
"v  c #685833",
"b  c #755E33",
"n  c #7C612E",
"m  c #6B643C",
"M  c #746136",
"N  c #7B6435",
"B  c #75643A",
"V  c #7E693B",
"C  c #7B6739",
"Z  c #4D4B40",
"A  c #5C5945",
"S  c #535145",
"D  c #625C41",
"F  c #686548",
"G  c #786C44",
"H  c #7D7049",
"J  c #75724A",
"K  c #6B6A54",
"L  c #696754",
"P  c #787355",
"I  c #7C7B62",
"U  c #815F25",
"Y  c #87662B",
"T  c #98712E",
"R  c #846A35",
"E  c #846C3C",
"W  c #8A6F39",
"Q  c #8C733D",
"!  c #87743E",
"~  c #9B7632",
"^  c #9A793A",
"/  c #967738",
"(  c #A37B32",
")  c #816D41",
"_  c #857244",
"`  c #8A7442",
"'  c #8A794D",
"]  c #877748",
"[  c #957B44",
"{  c #927F4C",
"}  c #8C7D53",
"|  c #817D5C",
" . c #867851",
".. c #917E53",
"X. c #9F813F",
"o. c #A4823C",
"O. c #9D8242",
"+. c #97814C",
"@. c #9C864D",
"#. c #8D8652",
"$. c #86825F",
"%. c #938355",
"&. c #9A8553",
"*. c #9D8B55",
"=. c #95855A",
"-. c #9D8B5B",
";. c #958A5B",
":. c #A48D4C",
">. c #A5894A",
",. c #AE924F",
"<. c #B1944D",
"1. c #BE9C4D",
"2. c #A88F51",
"3. c #A48E57",
"4. c #AA9353",
"5. c #A5915D",
"6. c #AD9A5D",
"7. c #A99555",
"8. c #B29A5A",
"9. c #B49A55",
"0. c #BBA45C",
"q. c #8D8B6C",
"w. c #8E8C64",
"e. c #9F9262",
"r. c #9C9A75",
"t. c #8E8C75",
"y. c #A49366",
"u. c #AC9A64",
"i. c #A69569",
"p. c #AD9D6D",
"a. c #A99666",
"s. c #B19C64",
"d. c #B19F6A",
"f. c #A49F77",
"g. c #AEA165",
"h. c #AFA46D",
"j. c #B5A464",
"k. c #BBA361",
"l. c #BDA964",
"z. c #BCAC6A",
"x. c #B5A66B",
"c. c #A9A57A",
"v. c #B3A371",
"b. c #B9AC74",
"n. c #B1AC7A",
"m. c #BBB278",
"M. c #D4A94E",
"N. c #C8A556",
"B. c #D6B45D",
"V. c #D4AD56",
"C. c #E5B958",
"Z. c #C2AD6B",
"A. c #C7AB65",
"S. c #CAB16A",
"D. c #D9BB6E",
"F. c #CEB773",
"G. c #C5BA7B",
"H. c #D3BB76",
"J. c #E3BB62",
"K. c #EBC15C",
"L. c #CBC47C",
"P. c #DBC27B",
"I. c #D4C56B",
"U. c #E9C967",
"Y. c #E7CA77",
"T. c #F5DD78",
"R. c #F0D46F",
"E. c #A19F83",
"W. c #AFAE89",
"Q. c #B0AF88",
"!. c #BAB689",
"~. c #B1AF93",
"^. c #B4B393",
"/. c #BCBB99",
"(. c #C8BB84",
"). c #C9C48A",
"_. c #D1C78B",
"`. c #DFD38F",
"'. c #C7C59A",
"]. c #C6C493",
"[. c #D6D299",
"{. c #E0CA83",
"}. c #ECD98D",
"|. c #FAEA84",
" X c #FBEF8A",
".X c #FDF18D",
"XX c #EAE396",
"oX c #FBF399",
"OX c #FFF794",
"+X c #F2E48B",
"@X c #CDCCAC",
"#X c #D7D5A6",
"$X c #DBDAB7",
"%X c #EEEAAB",
"&X c #EAE4A5",
"*X c #F5EAA6",
"=X c #FFFAA3",
"-X c #FCF6A8",
";X c #EBEAB3",
":X c #EAE9BB",
">X c #F0EDB1",
",X c #FFFBB2",
"<X c #FDFCBA",
"1X c #F6F4B8",
"2X c #EBEAC4",
"3X c #F0EFCA",
"4X c #F1F1C4",
"5X c #FFFFC5",
"6X c #FEFECC",
"7X c #F5F5CB",
"8X c #FCFCD3",
"9X c #FFFFDB",
/* pixels */
"                        H.0.9.9.4.:.,.k.                        ",
"                  F.Z.z.u.6.j.0.8.2.2.@.4.4.6.                  ",
"              A.Z.x.z.G._.G.b.h.g.j.l.Z.8.3.&.5.5.              ",
"            Z.z.j.G.(.r.K 9 * $ $ * 7 F =.x.j.*.%.-.            ",
"          l.6.l.).q.7 o . . . . . . . . o 8 } d.3.%.=.          ",
"        0.7.z.%XP . . . . o + $ $ + o . . . o P (.5...%.        ",
"      8.:.l.*X,X).7 . & S t.~.^.~.W.q.s & . 8 (.*X(.-.} %.      ",
"    <.2.7.`.oX=X<X].L ^.2X$X/.3X8X'.#X;XQ.K ).-X*X`.p.%.} i.    ",
"    @.O.G.F #.-X<X8X8X@XK > * @X4Xr ; K '.<X<X,X&XJ d a.%.%.    ",
"  :.! 6.;.. + w.<X6XE.> . $ Z $X7XL $ . > r.<X>XP o X P -.} i.  ",
"  ^ R j.7 . . d %Xc.$ o S ~.2X9X9X2X^.A X + r.&Xs . . 9 i.%...  ",
"  ! @.;.o . & x.).> o P 2X9X8X$X@X:X6X4XI o > ].c.+ . X  .-.=.  ",
":.B 6.m . . u +XG . d :X8X2XI > & 5 W.6X:XA . F &Xa . . A -.} a.",
"Q l 7.8 . . ` I.: + n.<X5Xf.. s I L /.6X6X!.$ > [.$.. . a v.' y.",
"n j *.& . O :.0.4 f XX=X,Xw.. P 1X6X6X6X5X;XF 7 !.c.o . 5 p.%.=.",
"N k *.+ . + o.K.U.R. XOX=XG., X s r.;X5X5X<X>X%X,X!.$ . > i.=...",
"l h &.+ . + ~ M.1.B.T.|..XoXL.J , . P <X<X<X#X).%X!.+ . > y.} ..",
"j i @.& . X Y T @ e B.R.T.|. XOXL.* 7 XX,X%Xd % n.f.o . 6 p.} -.",
"V i +.1 . . t ~ # + o.K.R.,.m #.G + y XX=Xm.$ > _.| . . a v.} i.",
"[ x { v . . 2 ( t . q M.K.X.< # & e g.+X}.f . D `.r . . D 5.;.u.",
"  c B ' o . O z Y # o j M.C.V.N.S.Y.+XY.H o * b.e.O . +  .%.=.  ",
"  B u +.4 . . 0 ( z X o e X.N.J.Y.D.8.i o X ' {.f . . r a.' %.  ",
"  ` i V _ o = z ~ o.k @ . O w 1.B.h + . % ] Y.P.u., X H &...d.  ",
"    M i { v g Y T ^ ~ Y q @ @ >.N.1 & u >.A.D.H.P.u.G &._ %.    ",
"    ! x h 2.^ U Y q 2 k ^ ^ C <.N.O.>.9.` 3 B S.F.H.s.] ' u.    ",
"      M i c 4./ 0 o . X 2 p l R E V h 1 X . X B A.8._ _ *.      ",
"        M i c @.u X . . . . o X X o . . . . X i >.` ) &.        ",
"          B i h [ C 4 X . . . . . . . . O 4 M [ E E &.          ",
"            G c p N [ C i 3 : - - : 3 i N [ ! N ` 5.            ",
"              ] B v h j E [ Q W W Q [ ! C b E +.x.              ",
"                  G M j h j j j j j b C E ` 6.                  ",
"                        N R R Q Q Q [ [                         "
};
