/* XPM */
static char *a7a20722546d4986d1c351d9d150b12fWw2qArJtgE3kpoLZ[] = {
/* columns rows colors chars-per-pixel */
"80 80 247 2 ",
"   c None",
".  c #060607",
"X  c #070708",
"o  c #0B0A09",
"O  c #080708",
"+  c #100F0B",
"@  c #13120D",
"#  c #19150E",
"$  c #1E190E",
"%  c #151410",
"&  c #181711",
"*  c #1D1A13",
"=  c #1E1D18",
"-  c #221E13",
";  c #201F18",
":  c #211B0F",
">  c #2A2314",
",  c #25231B",
"<  c #2A261B",
"1  c #2B291E",
"2  c #262216",
"3  c #352C18",
"4  c #3B321C",
"5  c #39311B",
"6  c #2D2B21",
"7  c #312E22",
"8  c #3A3727",
"9  c #3E3C32",
"0  c #473A1D",
"q  c #543F1B",
"w  c #4B3E22",
"e  c #433D27",
"r  c #483F2A",
"t  c #57431D",
"y  c #654B1F",
"u  c #4C4227",
"i  c #544423",
"p  c #5B4925",
"a  c #5C4C2A",
"s  c #564728",
"d  c #5C512D",
"f  c #454232",
"g  c #4A4734",
"h  c #544E37",
"j  c #595339",
"k  c #624D26",
"l  c #634E27",
"z  c #64522B",
"x  c #6B552B",
"c  c #6E592D",
"v  c #685227",
"b  c #735A2C",
"n  c #7A5B25",
"m  c #6D5B32",
"M  c #655935",
"N  c #735D32",
"B  c #785F31",
"V  c #7C622E",
"C  c #6C623C",
"Z  c #756235",
"A  c #7C6434",
"S  c #75633B",
"D  c #7C6A3C",
"F  c #7A663A",
"G  c #7F713E",
"H  c #5A5743",
"J  c #615E45",
"K  c #686449",
"L  c #7C6C44",
"P  c #756A46",
"I  c #7C7249",
"U  c #6A6853",
"Y  c #7A7555",
"T  c #746E51",
"R  c #7B7862",
"E  c #87662A",
"W  c #956E2C",
"Q  c #99722D",
"!  c #8B6D34",
"~  c #836C3B",
"^  c #896E3A",
"/  c #826834",
"(  c #8C733C",
")  c #89723B",
"_  c #977738",
"`  c #916F32",
"'  c #A47C34",
"]  c #A47D36",
"[  c #AC7B2D",
"{  c #815F26",
"}  c #826F43",
"|  c #847244",
" . c #8C7543",
".. c #83744A",
"X. c #8C7B4C",
"o. c #897948",
"O. c #917A44",
"+. c #937D4D",
"@. c #977C45",
"#. c #897C54",
"$. c #907E52",
"%. c #817F66",
"&. c #A98339",
"*. c #B58A3A",
"=. c #BF943F",
"-. c #9F823F",
";. c #9C8245",
":. c #94824D",
">. c #9C834B",
",. c #9D884B",
"<. c #898459",
"1. c #948254",
"2. c #9A8553",
"3. c #9C8955",
"4. c #95865A",
"5. c #9C8B5C",
"6. c #978A5D",
"7. c #948C54",
"8. c #A38A4C",
"9. c #AB8D4B",
"0. c #A68744",
"q. c #AB914C",
"w. c #B8964C",
"e. c #A28C54",
"r. c #A38D59",
"t. c #AB9355",
"y. c #A4925C",
"u. c #AB945B",
"i. c #AC995D",
"p. c #A89656",
"a. c #B39653",
"s. c #B39C5B",
"d. c #B89B56",
"f. c #B48D43",
"g. c #BCA25C",
"h. c #B7A45D",
"j. c #AEA15F",
"k. c #8B8868",
"l. c #9C8D62",
"z. c #948B65",
"x. c #9B9468",
"c. c #999676",
"v. c #8E8C73",
"b. c #A39364",
"n. c #AB9B63",
"m. c #AC9B6C",
"M. c #A79766",
"N. c #B39D64",
"B. c #B19E6B",
"V. c #AB9C72",
"C. c #B19E73",
"Z. c #A28E61",
"A. c #ACA268",
"S. c #B4A364",
"D. c #BBA463",
"F. c #B4A26B",
"G. c #BBAA69",
"H. c #A9A377",
"J. c #B7A877",
"K. c #BBB37B",
"L. c #BAB069",
"P. c #C79B44",
"I. c #C29E53",
"U. c #CAA555",
"Y. c #C4A45C",
"T. c #C9A658",
"R. c #D5AC56",
"E. c #DBB358",
"W. c #D1A64C",
"Q. c #E5B957",
"!. c #C5AA65",
"~. c #CBB36B",
"^. c #C6B46A",
"/. c #D5B667",
"(. c #CDB673",
"). c #C7B777",
"_. c #D3BB74",
"`. c #D5BC76",
"'. c #C7AE70",
"]. c #E5BE64",
"[. c #EBC25C",
"{. c #F1C75F",
"}. c #DAC37B",
"|. c #D8C57A",
" X c #D5C574",
".X c #E9C667",
"XX c #F5D36B",
"oX c #E6C877",
"OX c #EBD575",
"+X c #F4D778",
"@X c #F2CC67",
"#X c #F9E47B",
"$X c #EFE17B",
"%X c #C1913B",
"&X c #AAA887",
"*X c #BAB485",
"=X c #B7B596",
"-X c #B0AF91",
";X c #9F9D83",
":X c #C6B984",
">X c #C1BF99",
",X c #C1BFA1",
"<X c #CBC38B",
"1X c #D7C886",
"2X c #DBD38A",
"3X c #C9C796",
"4X c #DBD59A",
"5X c #D3CC94",
"6X c #E3CB84",
"7X c #E6D889",
"8X c #F3DD86",
"9X c #E6DA98",
"0X c #F0DE99",
"qX c #FCEB84",
"wX c #F7E68A",
"eX c #FDF28C",
"rX c #ECE499",
"tX c #F5E798",
"yX c #FDF493",
"uX c #FCF59B",
"iX c #FEF89C",
"pX c #EBE38E",
"aX c #CBC9A5",
"sX c #D9D8AA",
"dX c #D9D8B3",
"fX c #D0CFA7",
"gX c #E7DEA2",
"hX c #E8E4A8",
"jX c #F5EAA7",
"kX c #FEF9A4",
"lX c #FDF9AC",
"zX c #FAF3AA",
"xX c #E8E6B9",
"cX c #FBF6B2",
"vX c #FEFAB5",
"bX c #F4F3BB",
"nX c #FDFCBB",
"mX c #F7F4B6",
"MX c #F1EEB5",
"NX c #ECECC5",
"BX c #FDFDC3",
"VX c #F4F3CC",
"CX c #FEFECB",
"ZX c #F5F4C4",
"AX c #FEFED5",
"SX c #FCFBD5",
"DX c #F0EFC3",
/* pixels */
"                                                                                                                                                                ",
"                                                                    T.T.U.U.U.U.U.U.U.T.Y.Y.Y.                                                                  ",
"                                                            !./././.~.^.^.!.!.D.D.D.g.g.g.g.Y.Y.Y.Y.!.                                                          ",
"                                                      R./._.).).G.A.A.y.y.r.y.3.r.,.e.:.,.:.,.>.8.t.d.Y.!.D.                                                    ",
"                                                T./.}.1XK.H.A.A.n.u.S.u.i.i.S.y.i.i.i.e.u.e.e.>.e.+.:.O.e.D.!.D.N.                                              ",
"                                            T.R.1X<XJ.m.F.i.S.y.S.y.L.S.G.s.!.d.g.d.g.a.d.s.u.y.t.e.e.3.2.| :.i.D.s.N.                                          ",
"                                        U.T.|.<XJ.b.S.i.G.y.L.G.^.G.^.^._.|.|.|.|.|._.~.Y.g.w.a.a.t.e.u.e.r.2.| +.y.S.s.b.                                      ",
"                                      Y.(.:XK.y.L.p.S.s.'.'._.1X9XhXhXhXhXsX4X3X3X3X5X4X9X7X2X}.~.Y.d.d.e.u.e.r.:.X.1.y.n.b.                                    ",
"                                  I.!._.K.n.j.8.S.D.L.1X4XhXMXxXfX&X%.T K j f r 9 f f j K T <.H.<X2X2X`.g.a.t.u.:.y.+.X.$.y.n.b.                                ",
"                                w.~.|.M.a.t.i.D.G.1XhXbXMX=Xv.K 9 , % o o o o o o o o o o o % , r K z.:X9X1X!.a.t.i.1.e.o...5.n.r.                              ",
"                              w.`.K.n.a.,.G.D.|.MXDXdX&XH , @ o O . . . . . . . . . . . . . . . O o @ 1 K J.5X1XG.t.s.3.5.r.L X.M.r.                            ",
"                            w.).F.i.,.j.D.).9XbXsXv.g * o . . . . . . . . . . . . . . . . . . . . . . . o , j M.<X).N.u.n.+.5.....b.r.                          ",
"                          Y.).G.e.p.s.h.1XMXxX&Xh = o . . . . . . . . . . . . . . . . . . . . . . . . . . . o < K J.:XG.y.e.y.1.X.L 5.Z.                        ",
"                        Y.).n.8.a.p.G.7XbXfXY 6 o O . . . . . . . . . . . . . . . . . . . . . . . . . . . . . . @ 8 #.:X).e.e.r.3.X.L 4.Z.                      ",
"                      w.).y.a.;.q.D.9XBXxXT & o . . . . . . . . . . . . . . . . . . . . . . . . . . . . . . . . . o ; #.4X:X2.3.2.y.X.C 4.5.                    ",
"                    f.^.i.;.,.h.!.hXBXBXjXx.1 o . . . . . . . . . o @ * , 1 6 1 1 1 6 < , & + o . . . . . . . . . o 8 m.0XgX<Xy.e.3.1.$.P 6.r.                  ",
"                  *.L.i.;.q.8.!.rXnXnXlXkXrX<.1 O . . . . . o % , f U %.v.c.c.c.c.c.c.c.k.Y H 8 = @ o . . . . . o 8 x.9XtX0XgX<X5.:.b.4...P b.Z.                ",
"                w.g.A.;.;.,.g.rXnXlXiXiXkXlXhXk., . . . o & 9 K k.-XfXxXNXNXNXNXNXNXbXxXxXsX3XH.Y H 7 % o . . o 7 M.9XjXjXtXgXgX<X5.2.5.5.P L M.m.              ",
"                d.L.,.) ,.a.7XvXlXuXyXkXlXvXnXhXk.; o @ 7 U ;XaXxXVXSXAXAXAXAXAXAXAXCXCXCXCXBXbXsX3Xc.K 1 o o 6 x.rXjXjXjXjXtXgXgX:XX.2.4.4.P #.m.              ",
"              f.G.:.-.;.q.|.cXzXuXyXuXkXvXnXnXnXxXk.r J ;XfXNXSXAXAXSXVXNXfXVXAXAXAXCXxXxXDXBXBXBXnXMX5Xx.j g x.hXlXzXjXjXjXjX0X0X9XJ.X.5.5.$.m b.m.            ",
"            *.s.p._ ( 8.(.jX<XA.8XyXuXkXvXnXvXnXCXxX,XaXNXAXAXSXNX=Xk.U f 8 aXAXAXAXZXY f K k.>XxXZXBXBXhX<X<XjXvXvXlXzXjXjXjX0X:X<.:XB.:.1.5.X.L m.V.          ",
"            0.j.( ( 0.d.rX1Xj 1 :.7XuXkXvXvXnXBXAXAXCXSXAXSXdX&XU 6 % o . % =XAXAXAXbXh X o @ 7 U H.sXBXBXmXmXnXvXvXcXcXzXjXjX).j * K :Xr.3.5.1.L 4.m.          ",
"          f.s.,.( ( ;.|.rXY & o < <.9XkXvXvXnXCXAXAXAXAXVX&XH , o . . . . % -XAXAXAXDXH o . . . o , H *XbXBXnXnXnXvXvXcXzXjX:Xj @ . 2 k.K.:.5.5.X.P m.J.        ",
"          0.h.~ ) O.g.tXH.7 o . o < <.rXvXnXBXCXAXAXAXxXk.6 o . . . . . . % -XAXAXAXDXH O . . . . . o 6 k.hXnXnXnXvXvXcXzX<Xj @ . . o f K.M.2.6.$.P 4.F.        ",
"        *.h.( ( ! _ 7X2Xh o . . . o = <.hXnXBXCXAXCXaXH % . . . . . o + * 9 ,XAXAXAXDXU * @ o . . . . . % J 3XvXnXnXvXcX<Xh o . . . . % T :X+.5.b.#.S F.C.      ",
"        0.p.Z A ) d.tX6.* . . . . . . , H.MXBXCXCXaXH @ . . . . o = 9 U v.-XNXAXAXAXCX3Xv.U r = o . . . . @ h :XmXnXnXgXT @ . . . . . o 7 H.F.+.4.4.C 6.F.      ",
"        q.G A ! _ 1X2Xu o . . . . . . < z.hXnXCXaXH @ . . . o & 9 R -XdXNXVXAXAXAXAXAXCXNXdX=X%.r & o . . . @ h 3XnXnX4XY & . . . . . . @ T :X+.5.b.#.L J.      ",
"      *.,.A b ^ t.rXM.& . . . . . . @ j K.jXnXhXK @ . . . o , U &XdXVXAXAXAXAXAXAXAXAXAXAXAXVXxX-XT 6 o . . . @ J hXnXMX*Xf o . . . . . . 7 J.n.$.6.l.m b.C.    ",
"      0.o.Z / ! '.rXM O . . . . . o 5 x.rXlXjXk.% . . . o 6 %.fXVXAXAXAXAXAXAXAXAXAXAXAXAXAXAXCXZXdXv.7 o . . . % k.MXnXhX<.= . . . . . . @ Y :X1.Z.b.P $.C.    ",
"      8.L c A O.2X).2 . . . . . . & C |.kXkXK.6 . . . o 6 c.xXAXAXAXAXAXAXAXSXVXVXVXVXVXSXAXCXCXCXCXMXH.6 o . . . 1 K.vXvX<Xh o . . . . . O f :X5.X.4.4.L C.    ",
"    *.:.Z V / e.9X:.@ . . . . . o 8 y.pXiX2Xj + . . o , %.xXAXAXAXAXAXAXVXdX&Xk.R R %.v.-XsXZXCXCXCXCXxXk., O . . o K gXnXhX<., . . . . . . ; H.B.2.6.l.S M.C.  ",
"    &.X.m b / F.7XM o . . . . . @ M ^.eXyXA., X . . & K fXCXCXCXAXAXAXxX;XH , @ o o + % < H &XBXCXCXCXCXsXU % . . . 1 H.mXmX*Xf o . . . . . o Y J.+.4.l.I 4.V.  ",
"    &.I x A / ). Xe . . . . . . 2 o.OXeX7XC o . . o 9 H.bXBXBXCXCXAXDXv.6 o . . . . . . . % k.ZXCXCXCXCXbX*Xf o . . o K hXvX4XT & . . . . . o h K.2.l.4...X.B.  ",
"    ;.L v A ) 2XS.2 . . . . . o 4 p.$XqX^.1 . . . & Y 4XnXBXBXBXCXBX=X8 o . o @ * ; * % o < -XCXCXCXCXCXBXhX#.= . . . 8 <XvXjXx.1 o . . . . . 9 K.u.1.4.4...m.  ",
"  *.:.C x V O.7XX.@ . . . . . o a ^.#X#X:.@ . . o 9 K.zXvXnXnXBXBXbXY o . . ; T H.&X&Xk.H U dXCXCXCXCXCXBXbX=Xf o . . @ k.vXmX*Xr o . . . . . 1 V.N.5.l.4.L m.V.",
"  [ :.m x b 3.2XC o . . . . . # Z /.+XOXM o . . o K 2XlXlXlXvXnXnXMXJ o . . g fXZXCXBXDXdXdXZXCXCXCXCXBXBXBXhXT % . . o H MXmX5Xj o . . . . . = z.G.+.4.4.L M.V.",
"  [ :.z x b i.2Xd o . . . . . - ^ /.XX.Xu O . . & <.pXkXkXkXlXvXnXMXH o . . f fXBXCXCXCXCXCXBXCXCXCXCXBXBXBXbXc.= . . . 8 gXvX4XK @ . . . . . % #.'.+.l.4.P b.V.",
"  ' X.d x x F.|.u o . . . . . > ( E.@X[.Z e e e d L.tXiXiXuXiXlXlXjXK o . . & T 3XbXBXBXCXCXBXBXCXBXBXBXBXBXnX3XH r f f K hXvXgXY & . . . . . @ T ).+.l.6.L Z.m.",
"  ' X.a b b L._.0 . . . . . . > ( E.[.{..X.X.X.XOX+XqXyXyXyXiXkXkXkXA., . . . o 6 K H.sXZXBXBXBXBXBXBXBXBXBXnXbXhXhXhXhXMXvXvXhXx.2 . . . . . + K :X@.b.l.I 5.m.",
"  Q o.p x x ).(.4 . . . . . . > ! W.[.[.{.XXXX#XqXqX#XeXeXeXiXiXkXkX9XI = o . . . o & h c.fXbXBXBXBXBXBXBXnXnXBXnXvXnXnXnXvXvXjXV.1 . . . . . o K :X>.l.4.L l.m.",
"  Q o.a x v ).^.4 . . . . . . > ! P.Q.Q.[.{.{.XX#X#X#XqXeXeXeXyXuXuXuX1X<.8 @ O . . . o = j *XvXBXBXBXBXnXnXnXnXnXvXvXnXvXvXcXjXH.1 . . . . . o K :X>.l.6.L 5.m.",
"  Q ..p v v '.^.5 . . . . . . > E P.R.E.Q.[.[.{.XX+X+X#X#XqXeXeXyXyXuXuXrX).Y 8 % o . . . o h 4XnXnXnXnXnXnXnXnXnXvXvXvXvXvXcXjXV.1 . . . . . o K :X>.x.6.} 5.m.",
"  Q ..p v v G.^.0 . . . . . . > ! P.W.W.*._ _ &.w./..XOX+X#XqXeXeXeXyXyXuXuXtX<Xl.j & . . . @ x.vXvXnXvXvXvXvXMX*XH.H.H.:XzXcXhXz.; . . . . . + K ).>.l.6...Z.m.",
"  W ..s z k n._.w o . . . . . - n *.P.=.5 + + @ 3 0.]..X.XOX#X#XqXqXeXeXeXyXeXyXuXpX<.% . . o K jXlXvXvXvXvXvX*X8 @ @ @ 8 4XcX9XY % . . . . . @ T ).>.6.1.} b.m.",
"  W ..d k k y.|.a o . . . . . $ v [ %X*.4 . . . # / E.@X.X.X+X+X+XqXqXqXqXeXeXyXyXuX2X8 X . X j tXlXvXvXlXvXjXx.; . . . 8 9XcX4XK @ . . . . . & <.'.2.l.5...b.m.",
"  W ..d p k X.|.m o . . . . . @ t Q *.*.t o . . o k I.Q.Q..X@XXX+X+XOX^. XwXeXeXwXwX X8 X . X j rXkXlXlXzXjX9XT @ . . o j hXzX<Xj o . . . . . ; x.G.2.z.4...M.m.",
"  Q } M i z L |. .@ . . . . . o 5 E *.*.x + . . o 5 &.E.Q..X.XXXXXXXt.e d o.p.j.S.3.M @ . . o P pXuXkXkXuXtXK.f o . . % <.zXjXJ.9 o . . . . . 6 H.N.4.6.6...m.V.",
"    ~ C i v m _.t.- . . . . . O - v ' &.( > . . . # x P.Q.[.[..XXX.XM o O @ # * * # o . . . ; A.tXuXuXuXtX7X#.* . . . 8 :XzX9Xz.2 . . . . . . r *Xu.5.1.$.X.m.  ",
"    ^ P i p z F.^.0 . . . . . . # t W &.&.t o . . O 3 _ W.Q.Q.Q..XE.w o . . . . . . . . o 2 ..7XpXwXtXtX7XA.e o . . o K 9XjX<XJ @ . . . . . o J :Xe.6.b.#.1.m.  ",
"    ! P s p a 3.`.z o . . . . . o 4 E [ &.n : . . . @ p f.E.Q.Q.Q.Q._ w > # @ + + + # 2 u :. XwXwXwXtX8X).M # . . . , M.rX0Xm.8 o . . . . . @ k.).2.4.5.P 5.m.  ",
"    Q L j w a L `.O.+ . . . . . O - y Q *.' q o . . . * b P.E.Q.Q.Q.Q.I.0.( ~ D D D o.p.~.OX8X8X8XwXtX1XI 2 O . . o j 1XtX2XI & . . . . . . < J.N.+.1.l.P n.V.  ",
"      | M u p x ).!.> . . . . . . + 0 E ' &.E - . . . o > ! P.E.Q.Q.Q.Q.Q..X.X.X.XoXOX+X+X8XwX8X8X8X6X5.< o . . . < M.0X0XJ.u o . . . . . o j <X3.6.5.#.L F.    ",
"      ( P a i a 3.oXc o . . . . . . - y E ' &.b @ . . . . > A w.R.E.Q.Q.].]..X.XXX+X+X+XOX+X+X+XoX~...< O . . . @ I 6X8X`.P # . . . . . . & z.'. .$.b.P 3.F.    ",
"      _ ..h i p S `.8.- . . . . . . o 3 n ' *.&.i o . . . O - p ( w.R.E.E.E.E..X.X.XoXoXoXoXoX/.q.M ; o . . . o d `.7X6Xb.1 . . . . . . o r :Xr.+.4.4.m F.C.    ",
"        | M w i a M.(.s o . . . . . o > n ' &.] _ 0 o . . . . @ 3 x _ w.U.R.R.].]..X.X.X/.!.a.L 4 @ . . . . o w D.6X6X1X5.< . . . . . . % Y ). .X.4.....J.      ",
"        ^ I w i i S |.>.2 . . . . O $ y E ' ' ' &.! 4 o . . . . O # 3 p A 0.U.].].].].d. .M 4 * o . . . . + u i.oXoX}.1X(.P * . . . . o 9 F.y. .5.4.M M.F.      ",
"        _ | M w a i M.~.a o . . o : q E W Q ' ' &.&.E 0 + . . . . . o o # 3 0.R././.E.m * o o . . . . . @ d D.oXoXoX}.}.}.(.P * . . . * #.J.| +.X...L G.J.      ",
"          / I s i i m '.t.5 o o - t n E W Q ] ' ' &.&.Q v - o . . . . . . @ _ U.R.R.R.i O . . . . . o 2 S !.oXoXoX}.}.`.}.6X(.I 2 o o h J.e.O.r.$.m b.F.        ",
"          _ L M w a i :.(.~ * - p n E E W Q Q ' ] &.&.' ' V 0 - o . . . . + ) U.T.R.U.0 O . . . o - s @.!./.`.`.oX}._.`.`.`.6X).P , 7 Z.N.O.+.X.....S.J.        ",
"            / P a q s z N.!.N k n E E E W W Q Q ] Q W Q ' &._ V q > + o . + ~ Y.T.U.U.w O o @ > s O.d./.!.g.s.!.`.`._.(._.(.}.1X).#.1.'.@. .1.1.S r.N.          ",
"            _ D M w a i S !.Y._ E n { E E E W Q / i t n Q ' &.f.] ! v w > >  .I.T.U.U.c 5 s Z 8.Y.T././.d.} a L !.`./.(.(.'.(._.`.`.).e.O.+.+.P | N.V.          ",
"              ^ L M w i p | (.I.] E n n E E E n 3 o @ > t V ` &.f.f.9.9.;.( 9.d.Y.U.U.w.w.d.Y.T.T.T.d.8.z < o * S ~./.(._.(._._.(.(.i.~ } 1.$.m i.m.            ",
"                ) L u i i i o./.I.] E n n { v 3 o . . o @ 3 t n ` 0.0.9.9.f.f.w.I.I.Y.I.I.d.d.w.8.( m 4 @ . . . * D g.~.~.~.(._.(.i.~  .+.o.z e.N.              ",
"                _ D C u u i i 2.~.d.] E n y 3 o . . . . . o $ > 0 v A ^ _ _ ] 0.9.9.9.0.0.;.( m u 3 # o . . . . . 2 S g.~.~.!.~.N.^ O.| X.S X.S.H.              ",
"                  ! D M u q s a 2.^.d.' n 3 + . . . . . . . . o + * 3 0 i p l c N m z a i w 3 * o o . . . . . . . o > D !.~.!.i.O.~ } +.S D s.V.                ",
"                    / F d w i i a 2.~.I.x @ . . . . . . . . . . . . o o + @ # * * * # @ + o o . . . . . . . . . . . o 8 9.!.i.^ ~ X.~ F F t.m.                  ",
"                      A D M w a p p  .!.d.z - o . . . . . . . . . . . . . . . . . . . . . . . . . . . . . . . . . o < F i.9./ ( ~ | D N t.B.                    ",
"                        ~ L z i q p p ~ D.g.) 0 @ . . . . . . . . . . . . . . . . . . . . . . . . . . . . . . o & u O.a.@.~ | ~ +.Z N e.F.                      ",
"                          ) L M i i i a Z e.!.t.x < o . . . . . . . . . . . . . . . . . . . . . . . . . . . @ 5 Z e.9.O.^ A o.~ N A e.F.                        ",
"                            ~ L m u i w a x ) s.!.>.z > + . . . . . . . . . . . . . . . . . . . . . . . # 4 x ;.t.@.( / | } ~ N ~ e.J.                          ",
"                              | L S z 0 p i a c @.g.Y.9.Z 3 # o o . . . . . . . . . . . . . . . o + - w ~ 9.a.0.^ ~ ~ F D } x | i.J.                            ",
"                                o.o.| z p i a a l b O.a.Y.d.;.F i 3 - @ + o o o o o o o @ # - 4 a D ;.a.a.>.^ ^ A ~ N ~ B m ,.G.*X                              ",
"                                  #.o.o.F z i i p p l x / >.a.d.d.9. .F m z a a i a a z m A O.9.q.q.8.@.~ ~ A ~ B ~ B c ) i.J.:X                                ",
"                                      ..| | Z z i p p a k l b A ( 0.9.a.a.a.d.a.a.a.a.w.q.9.0.@.( ^ A ~ N D F A B c ~ ,.D.).                                    ",
"                                        ....| | Z l i l w z p l l v b b V / ! ^ ^ ^ ! / A A B A B Z c F A B b v A >.s.'.:X                                      ",
"                                            I L |  .A x p p i l i m k z l c v c c c x N N N x m m N A c c x ^ 8.s.G.).                                          ",
"                                                K Z ~ ) ^ A x v p v i k i x p x l x l x c c b x b x b A O.8.u.u.C.                                              ",
"                                                      m B / / / A A B c v v v v v v x v b b A A ^ O.>.>.2.5.                                                    ",
"                                                            m c b / ! ! ! ^ ( ( ( ( ( ( _ @.;.>.>.2.1.                                                          ",
"                                                                    B E ! _ 0.0.9.9.9.9.8.8.e.                                                                  "
};
